<svg width="200" height="134" fill="none"><path fill="#D7FFA4" stroke="#000" stroke-width="2" d="M27 20h14v14H27z"/><path stroke="#000" stroke-width="2" d="M80 88h14v14H80zm69-44h14v14h-14zm-39 68h14v14h-14zm-79-10h14v14H31zm51-66h14v14H82zm93 55h14v14h-14z"/><path stroke="#000" stroke-width="2" d="M1 1h198v132H1z"/><g fill="#000" fill-rule="evenodd" clip-rule="evenodd" opacity=".5"><path d="M0 0h68v68H0V0Zm2 2v64h64V2H2Z" opacity=".4"/><path d="M0 66h68v68H0V66Zm2 2v64h64V68H2Z" opacity=".4"/><path d="M66 0h68v68H66V0Zm2 2v64h64V2H68Z" opacity=".4"/><path d="M66 66h68v68H66V66Zm2 2v64h64V68H68Z" opacity=".4"/><path d="M132 0h68v68h-68V0Zm2 2v64h64V2h-64Z" opacity=".4"/><path d="M132 66h68v68h-68V66Zm2 2v64h64V68h-64Z" opacity=".4"/></g><path fill="#000" d="M11.38 11.74v-2c0-.54-.07-1.03-.2-1.44-.12-.43-.3-.78-.53-1.07a2.3 2.3 0 0 0-.87-.66 2.82 2.82 0 0 0-1.17-.22c-.43 0-.82.07-1.17.22-.34.15-.62.37-.86.66-.24.29-.42.64-.54 1.07-.13.41-.19.9-.19 1.44v2c0 .54.06 1.02.19 1.44.12.42.3.77.54 1.06.24.3.53.51.88.66a3.04 3.04 0 0 0 2.33-.01c.34-.14.62-.36.86-.65.23-.29.41-.64.54-1.06.12-.42.19-.9.19-1.44Zm-4.44-.22V9.5c0-.4.04-.75.12-1.05.08-.3.2-.55.37-.74.13-.16.3-.27.5-.35.2-.08.42-.12.68-.12.25 0 .48.03.67.1.2.08.36.2.49.34.14.15.24.33.32.55.08.21.14.46.17.74l-3.32 2.55Zm3.35.44c0 .42-.05.79-.13 1.1-.09.3-.22.55-.4.74-.13.15-.3.25-.48.33-.2.07-.41.1-.66.1a1.6 1.6 0 0 1-.63-.1 1.33 1.33 0 0 1-.48-.3 1.59 1.59 0 0 1-.35-.53 2.93 2.93 0 0 1-.2-.76l3.33-2.53v1.95Zm-3 65.25v.88h.77c.27 0 .51.03.74.1a1.3 1.3 0 0 1 .94.77c.09.19.13.42.13.68 0 .27-.03.5-.11.7a1.3 1.3 0 0 1-.83.8 2.23 2.23 0 0 1-1.35-.01c-.2-.07-.37-.17-.5-.3a1.34 1.34 0 0 1-.33-.47 1.61 1.61 0 0 1-.12-.61H5.55c0 .38.07.7.21 1 .15.3.34.54.58.75.24.2.53.35.86.46a3.48 3.48 0 0 0 2.12 0c.34-.12.62-.28.87-.5.24-.21.43-.47.56-.78a2.6 2.6 0 0 0-.09-2.22 1.89 1.89 0 0 0-.45-.49 2.21 2.21 0 0 0-.7-.35 2.16 2.16 0 0 0 1.24-1.34c.05-.18.08-.35.08-.51 0-.4-.06-.75-.19-1.05a2.06 2.06 0 0 0-1.34-1.21 3.3 3.3 0 0 0-2.13.03 2.3 2.3 0 0 0-1.55 2.17h1.1c0-.23.03-.43.1-.6a1.32 1.32 0 0 1 .8-.76c.2-.07.4-.1.63-.1.24 0 .45.02.63.09.2.05.35.14.47.27.13.12.23.28.3.47a1.98 1.98 0 0 1-.02 1.25 1.27 1.27 0 0 1-.85.77c-.2.08-.45.11-.72.11h-.77ZM75.54 15V6.47h-.1L72.23 7.7v1l2.23-.86V15h1.09Z"/><path fill="#fff" d="M76.41 79.13v-5.66h-1.15l-3.82 5.91v.64h3.89V82h1.08v-1.98h1.2v-.89h-1.2Zm-3.77 0 2.51-3.9.18-.32v4.22h-2.69Z" style="mix-blend-mode:exclusion"/><path fill="#000" d="M145.25 15v-.88h-4.28l2.29-2.49a9.33 9.33 0 0 0 1.12-1.42c.15-.25.27-.49.35-.74a2.42 2.42 0 0 0-.05-1.7 2.1 2.1 0 0 0-.51-.74c-.22-.22-.5-.38-.82-.5a3.05 3.05 0 0 0-1.09-.18c-.43 0-.82.07-1.17.21a2.49 2.49 0 0 0-1.4 1.41c-.13.32-.2.65-.2 1.01h1.1c0-.26.03-.5.1-.72.07-.21.17-.4.31-.55.14-.15.31-.26.52-.34a2.04 2.04 0 0 1 1.37 0 1.4 1.4 0 0 1 .78.8 1.98 1.98 0 0 1-.18 1.6c-.1.2-.24.4-.4.6-.17.22-.38.47-.63.75l-2.8 3.1V15h5.6Zm-4.85 62.72.87.23c.1-.1.2-.17.28-.23a1.7 1.7 0 0 1 .66-.28 2.07 2.07 0 0 1 1.19.11 1.56 1.56 0 0 1 .86 1 2.79 2.79 0 0 1 .01 1.54c-.06.24-.16.44-.3.6a1.4 1.4 0 0 1-1.19.54c-.45 0-.83-.12-1.12-.37a1.7 1.7 0 0 1-.53-1.1h-1.03c.03.39.13.74.28 1.03a2.32 2.32 0 0 0 1.42 1.18c.3.1.64.15.98.15.46 0 .85-.07 1.19-.21a2.31 2.31 0 0 0 1.33-1.5 4.06 4.06 0 0 0-.01-2.3 2.6 2.6 0 0 0-.5-.9 2.26 2.26 0 0 0-.8-.58c-.32-.13-.67-.2-1.06-.2a2.7 2.7 0 0 0-1.42.37l.24-2.28h3.46v-1.05h-4.38l-.42 4.25Z"/></svg>