<?xml version="1.0" encoding="UTF-8" standalone="no"?>
<!-- Created with Inkscape (http://www.inkscape.org/) -->

<svg
   width="237.48244mm"
   height="136.69263mm"
   viewBox="0 0 237.48244 136.69263"
   version="1.1"
   id="svg5"
   inkscape:version="1.2.2 (b0a8486541, 2022-12-01)"
   sodipodi:docname="imneil.svg"
   xmlns:inkscape="http://www.inkscape.org/namespaces/inkscape"
   xmlns:sodipodi="http://sodipodi.sourceforge.net/DTD/sodipodi-0.dtd"
   xmlns="http://www.w3.org/2000/svg"
   xmlns:svg="http://www.w3.org/2000/svg">
  <sodipodi:namedview
     id="namedview7"
     pagecolor="#ffffff"
     bordercolor="#000000"
     borderopacity="0.25"
     inkscape:showpageshadow="2"
     inkscape:pageopacity="0.0"
     inkscape:pagecheckerboard="0"
     inkscape:deskcolor="#d1d1d1"
     inkscape:document-units="mm"
     showgrid="false"
     inkscape:zoom="0.71793285"
     inkscape:cx="387.91929"
     inkscape:cy="434.58103"
     inkscape:window-width="1920"
     inkscape:window-height="1011"
     inkscape:window-x="0"
     inkscape:window-y="0"
     inkscape:window-maximized="1"
     inkscape:current-layer="layer1" />
  <defs
     id="defs2" />
  <g
     inkscape:label="Capa 1"
     inkscape:groupmode="layer"
     id="layer1"
     transform="translate(79.31467,-70.35841)">
    <text
       xml:space="preserve"
       style="font-size:5.64444px;font-family:'Cascadia Mono PL';-inkscape-font-specification:'Cascadia Mono PL';fill:#fcdcd7;stroke-width:1.665;stroke-linecap:square"
       x="-37.527035"
       y="114.564"
       id="text236"><tspan
         sodipodi:role="line"
         id="tspan234"
         style="stroke-width:1.665"
         x="-37.527035"
         y="114.564" /></text>
    <rect
       style="opacity:0;fill:none;stroke:#000000;stroke-width:1.79;stroke-linecap:square;stroke-dasharray:none;stroke-opacity:1"
       id="rect290"
       width="235.69244"
       height="134.90263"
       x="-78.41967"
       y="71.25341" />
    <path
       id="path1114"
       style="font-size:5.64444px;font-family:'Cascadia Mono PL';-inkscape-font-specification:'Cascadia Mono PL';fill:#ffffff;fill-rule:nonzero;stroke:#000000;stroke-width:3.165;stroke-linecap:round;stroke-linejoin:round;paint-order:markers stroke fill"
       d="m -52.824166,138.70471 c -0.225999,0 -0.408244,0.18173 -0.408244,0.40773 0,0.22599 0.182245,0.40824 0.408244,0.40824 0.225998,0 0.407727,-0.18225 0.407727,-0.40824 0,-0.226 -0.181729,-0.40773 -0.407727,-0.40773 z m 16.536458,0 c -0.225997,0 -0.408243,0.18173 -0.408243,0.40773 0,0.22599 0.182246,0.40824 0.408243,0.40824 0.225998,0 0.407728,-0.18225 0.407728,-0.40824 0,-0.226 -0.18173,-0.40773 -0.407728,-0.40773 z m 1.749764,0.0661 v 0.51263 h 0.859896 v 2.51922 c 0,0.81029 0.281122,1.15756 0.959115,1.15756 0.314193,0 0.573609,-0.0331 0.871265,-0.11576 l -0.06615,-0.51263 c -0.242534,0.0717 -0.419096,0.10439 -0.584461,0.10439 -0.501604,0 -0.595312,-0.19844 -0.595312,-0.66146 v -3.00395 z m -15.395442,1.15755 c -0.319704,0 -0.479213,0.13798 -0.501262,0.4191 h -0.04444 l -0.03824,-0.36381 h -0.518315 v 2.92127 h 0.584461 v -2.13889 c 0,-0.26457 0.09371,-0.39687 0.28112,-0.39687 0.15434,0 0.23151,0.0827 0.23151,0.24805 v 2.28771 h 0.496094 v -2.13889 c 0,-0.26457 0.09337,-0.39687 0.286287,-0.39687 0.154341,0 0.226343,0.0994 0.226343,0.30334 v 2.23242 h 0.583944 v -2.28771 c 0,-0.48507 -0.17639,-0.68885 -0.578776,-0.68885 -0.308681,0 -0.473873,0.1931 -0.49041,0.4191 h -0.04702 c -0.05512,-0.28112 -0.225998,-0.4191 -0.471289,-0.4191 z m 7.077604,0 c -0.490581,0 -0.738456,0.1931 -0.771529,0.58446 h -0.06356 l -0.04651,-0.52917 h -0.529167 v 2.92127 h 0.583944 v -1.64279 c 0,-0.54294 0.231856,-0.81029 0.689364,-0.81029 0.330728,0 0.523482,0.19861 0.523482,0.55139 v 1.90169 h 0.58446 v -1.90169 c 0,-0.6835 -0.353123,-1.07487 -0.970484,-1.07487 z m 3.098002,0 c -0.837846,0 -1.317232,0.5569 -1.317232,1.5105 0,0.98116 0.561897,1.52136 1.559595,1.52136 0.220485,0 0.507463,-0.0113 0.854728,-0.0775 l -0.07183,-0.51263 c -0.242533,0.0496 -0.474217,0.0775 -0.716752,0.0775 -0.587043,0 -0.956358,-0.25633 -1.058333,-0.74414 h 1.973523 c 0.01102,-0.11576 0.01654,-0.23738 0.01654,-0.37518 0,-0.9095 -0.451998,-1.39991 -1.240234,-1.39991 z m -14.2875,0.0553 v 0.51263 h 0.948263 v 1.89601 h -1.113628 v 0.51263 h 2.596224 v -0.51263 h -0.898653 v -2.40864 z m 16.536458,0 v 0.51263 h 0.948263 v 1.89601 h -1.113627 v 0.51263 h 2.596224 v -0.51263 h -0.898653 v -2.40864 z m -2.243274,0.45734 c 0.440972,0 0.705384,0.29232 0.705384,0.81597 h -1.482597 c 0.04685,-0.5209 0.325218,-0.81597 0.777213,-0.81597 z"
       inkscape:export-filename="path1114.png"
       inkscape:export-xdpi="96"
       inkscape:export-ydpi="96" />
  </g>
</svg>
